<svg width="30" height="30" viewBox="0 0 30 30" fill="none" xmlns="http://www.w3.org/2000/svg">
<path d="M28.75 15.5224L22.5 13.583V9.70244L28.75 7.76214C29.4413 7.76214 30 8.19687 30 8.73229V14.5532C30 15.0886 29.4413 15.5224 28.75 15.5224ZM16.875 8.73132C13.7688 8.73132 11.25 6.7765 11.25 4.36566C11.25 1.95482 13.7688 0 16.875 0C19.9813 0 22.5 1.95482 22.5 4.36566C22.5 6.77747 19.9813 8.73132 16.875 8.73132ZM5.625 8.73132C2.51875 8.73132 0 6.7765 0 4.36566C0 1.95482 2.51875 0 5.625 0C8.73125 0 11.25 1.95482 11.25 4.36566C11.25 6.77747 8.73125 8.73132 5.625 8.73132ZM21.25 8.73132V17.4626H14.2725C14.2075 18.2682 13.7525 18.9624 13.0763 19.3555H13.7813L18.7675 28.0655H17.525L15.8625 25.1609H12.5375V30H11.2913V25.1609H7.91375L6.225 28.0655H4.98125L10.0462 19.3555H10.5175C9.84125 18.9624 9.38625 18.2682 9.32125 17.4626H1.25V8.73132H21.25ZM11.29 19.6556C11.2387 19.646 11.1913 19.6256 11.1413 19.6121L8.47625 24.1936H11.29V19.6556ZM12.5363 19.5859V24.1946H15.3075L12.65 19.552C12.6138 19.5656 12.5763 19.5743 12.5363 19.5859Z" fill="#EA8837"/>
</svg>
